# This file uses centimeters as units for non-parametric coordinates.

mtllib plate_1.mtl
g default
v -17.078039 3.197485 -0.439397
v -17.280006 3.197485 -0.835782
v -17.594578 3.197485 -1.150355
v -17.990965 3.197485 -1.352323
v -18.430361 3.197485 -1.421917
v -18.869757 3.197485 -1.352323
v -19.266144 3.197485 -1.150355
v -19.580713 3.197485 -0.835782
v -19.782684 3.197485 -0.439397
v -19.852278 3.197485 -0.000000
v -19.782684 3.197485 0.439396
v -19.580713 3.197485 0.835781
v -19.266144 3.197485 1.150354
v -18.869757 3.197485 1.352323
v -18.430361 3.197485 1.421916
v -17.990965 3.197485 1.352323
v -17.594582 3.197485 1.150354
v -17.280006 3.197485 0.835781
v -17.078039 3.197485 0.439396
v -17.008444 3.197485 -0.000000
v -18.430361 3.190319 0.000000
v -18.430361 3.221041 -0.000000
v -16.638704 3.541575 -0.582145
v -16.629734 3.507955 -0.585059
v -16.537067 3.507955 -0.000000
v -16.546497 3.541575 -0.000000
v -16.629734 3.507955 0.585059
v -16.638704 3.541575 0.582144
v -16.898659 3.507955 1.112848
v -16.906288 3.541575 1.107304
v -17.317513 3.507955 1.531704
v -17.323057 3.541575 1.524074
v -17.845303 3.507955 1.800626
v -17.848217 3.541575 1.791656
v -18.430361 3.507955 1.893290
v -18.430361 3.541575 1.883859
v -19.015419 3.507955 1.800626
v -19.012508 3.541575 1.791656
v -19.543213 3.507955 1.531704
v -19.537664 3.541575 1.524074
v -19.962059 3.507955 1.112848
v -19.954435 3.541575 1.107305
v -20.230984 3.507955 0.585059
v -20.222015 3.541575 0.582144
v -20.323654 3.507955 -0.000000
v -20.314220 3.541575 -0.000000
v -20.230984 3.507955 -0.585059
v -20.222015 3.541575 -0.582144
v -19.962059 3.507955 -1.112848
v -19.954435 3.541575 -1.107305
v -19.543213 3.507955 -1.531704
v -19.537664 3.541575 -1.524074
v -19.015419 3.507955 -1.800626
v -19.012508 3.541575 -1.791657
v -18.430361 3.507955 -1.893291
v -18.430361 3.541575 -1.883860
v -17.845299 3.507955 -1.800626
v -17.848215 3.541575 -1.791657
v -17.317513 3.507955 -1.531705
v -17.323057 3.541575 -1.524075
v -16.898657 3.507955 -1.112848
v -16.906288 3.541575 -1.107305
v -17.406040 3.221041 -0.332823
v -17.146458 3.285141 -0.417166
v -17.559021 3.221041 -0.633065
v -17.338209 3.285141 -0.793496
v -17.797300 3.221041 -0.871340
v -17.636866 3.285140 -1.092153
v -18.097542 3.221041 -1.024321
v -18.013193 3.285141 -1.283904
v -18.430361 3.221041 -1.077034
v -18.430361 3.285141 -1.349975
v -18.763184 3.221041 -1.024321
v -18.847528 3.285141 -1.283903
v -19.063423 3.221041 -0.871339
v -19.223858 3.285141 -1.092153
v -19.301701 3.221041 -0.633066
v -19.522512 3.285141 -0.793496
v -19.454681 3.221041 -0.332822
v -19.714266 3.285141 -0.417165
v -19.507393 3.221041 -0.000000
v -19.780334 3.285141 -0.000000
v -19.454681 3.221041 0.332822
v -19.714266 3.285141 0.417165
v -19.301701 3.221041 0.633065
v -19.522512 3.285141 0.793495
v -19.063423 3.221041 0.871339
v -19.223858 3.285141 1.092152
v -18.763184 3.221041 1.024320
v -18.847528 3.285141 1.283903
v -18.430361 3.221041 1.077033
v -18.430361 3.285141 1.349974
v -18.097542 3.221041 1.024320
v -18.013193 3.285141 1.283903
v -17.797300 3.221041 0.871339
v -17.636866 3.285141 1.092152
v -17.559021 3.221041 0.633064
v -17.338211 3.285141 0.793495
v -17.406040 3.221041 0.332822
v -17.146458 3.285141 0.417165
v -17.353329 3.221041 -0.000001
v -17.080387 3.285140 -0.000000
vt 0.743452 0.169309
vt 0.699258 0.139963
vt 0.648167 0.125693
vt 0.595173 0.127886
vt 0.545456 0.146316
vt 0.503873 0.179162
vt 0.474481 0.223188
vt 0.460139 0.274057
vt 0.462227 0.326751
vt 0.480508 0.376059
vt 0.515109 0.420192
vt 0.559050 0.449135
vt 0.609944 0.463095
vt 0.662779 0.460649
vt 0.712358 0.442001
vt 0.753810 0.408948
vt 0.783064 0.364703
vt 0.797247 0.313582
vt 0.794962 0.260577
vt 0.776427 0.210867
vt 0.628874 0.294107
vt 0.031385 0.046165
vt 0.734263 0.995714
vt 0.089796 0.000000
vt 0.130570 0.036419
vt 0.034055 0.042410
vt 0.177172 0.072982
vt 0.086248 0.083757
vt 0.224124 0.111351
vt 0.134462 0.122341
vt 0.270157 0.151591
vt 0.180593 0.160766
vt 0.314950 0.193487
vt 0.225243 0.200091
vt 0.358399 0.236895
vt 0.268549 0.240678
vt 0.400453 0.281744
vt 0.310509 0.282602
vt 0.441109 0.328049
vt 0.351083 0.325840
vt 0.390200 0.370307
vt 0.427656 0.415709
vt 0.551369 0.470625
vt 0.462540 0.460676
vt 0.585748 0.521779
vt 0.496966 0.508415
vt 0.618396 0.573906
vt 0.530024 0.557553
vt 0.649320 0.627039
vt 0.561515 0.607795
vt 0.678488 0.681158
vt 0.591372 0.659042
vt 0.705836 0.736233
vt 0.619557 0.711242
vt 0.731236 0.792203
vt 0.646025 0.764377
vt 0.754492 0.848800
vt 0.670713 0.818533
vt 0.775702 0.904995
vt 0.693523 0.874107
vt 0.797343 0.957616
vt 0.714477 0.932268
vt 0.118248 0.658836
vt 0.149320 0.698771
vt 0.101032 0.611255
vt 0.099353 0.560686
vt 0.113373 0.512072
vt 0.141717 0.470170
vt 0.181606 0.439075
vt 0.229131 0.421824
vt 0.279625 0.420088
vt 0.328086 0.433954
vt 0.369333 0.461473
vt 0.402288 0.503960
vt 0.418864 0.550673
vt 0.420399 0.601048
vt 0.406307 0.649564
vt 0.377905 0.691388
vt 0.337960 0.722407
vt 0.290377 0.739579
vt 0.239811 0.741217
vt 0.191206 0.727157
vt 0.133833 0.604967
vt 0.132492 0.564841
vt 0.143607 0.526265
vt 0.166085 0.493011
vt 0.197725 0.468329
vt 0.235422 0.454629
vt 0.275484 0.453246
vt 0.313988 0.464314
vt 0.347210 0.486812
vt 0.372318 0.519105
vt 0.385969 0.556835
vt 0.387246 0.596875
vt 0.376071 0.635368
vt 0.353536 0.668546
vt 0.321842 0.693154
vt 0.284088 0.706777
vt 0.243965 0.708078
vt 0.205398 0.696924
vt 0.172159 0.674404
vt 0.147500 0.642719
vt 0.259797 0.580760
vt 0.729819 0.996986
vt 0.655937 1.000000
vt 0.644006 0.950048
vt 0.710656 0.933568
vt 0.624680 0.898475
vt 0.689718 0.875608
vt 0.602615 0.846713
vt 0.666934 0.820207
vt 0.578790 0.795293
vt 0.642297 0.766196
vt 0.553332 0.744499
vt 0.615887 0.713189
vt 0.526256 0.694487
vt 0.587768 0.661109
vt 0.497584 0.645357
vt 0.557979 0.609979
vt 0.467346 0.597185
vt 0.526562 0.559853
vt 0.435578 0.550043
vt 0.493583 0.510831
vt 0.459248 0.463220
vt 0.424413 0.418301
vt 0.333135 0.417629
vt 0.387055 0.373021
vt 0.295554 0.374960
vt 0.348031 0.328660
vt 0.256603 0.333483
vt 0.307551 0.285520
vt 0.216332 0.293238
vt 0.265688 0.243689
vt 0.174813 0.254237
vt 0.222478 0.203184
vt 0.132172 0.216472
vt 0.177920 0.163916
vt 0.088670 0.180016
vt 0.131871 0.125501
vt 0.044685 0.145548
vt 0.083730 0.086900
vt 0.000000 0.116315
vn 0.246614 -0.952406 -0.179175
vn 0.289911 -0.952407 -0.094199
vn -0.000000 -1.000000 -0.000000
vn 0.179176 -0.952406 -0.246614
vn 0.094198 -0.952406 -0.289912
vn -0.000000 -0.952406 -0.304832
vn -0.094198 -0.952406 -0.289912
vn -0.179177 -0.952406 -0.246615
vn -0.246614 -0.952406 -0.179174
vn -0.289912 -0.952406 -0.094200
vn -0.304831 -0.952406 -0.000000
vn -0.289913 -0.952406 0.094200
vn -0.246614 -0.952406 0.179175
vn -0.179176 -0.952406 0.246614
vn -0.094198 -0.952406 0.289913
vn -0.000000 -0.952406 0.304832
vn 0.094198 -0.952406 0.289912
vn 0.179175 -0.952407 0.246614
vn 0.246614 -0.952406 0.179176
vn 0.289911 -0.952407 0.094199
vn 0.304831 -0.952406 -0.000000
vn 0.915701 0.270123 -0.297533
vn 0.915701 0.270123 -0.297531
vn 0.778944 0.270123 -0.565932
vn 0.778942 0.270123 -0.565936
vn 0.962826 0.270123 -0.000000
vn 0.962826 0.270123 -0.000000
vn 0.915706 0.270101 0.297536
vn 0.915707 0.270101 0.297534
vn 0.778948 0.270101 0.565938
vn 0.778946 0.270101 0.565940
vn 0.565935 0.270100 0.778951
vn 0.565939 0.270100 0.778947
vn 0.297531 0.270084 0.915713
vn 0.297532 0.270084 0.915713
vn -0.000000 0.270082 0.962837
vn -0.000000 0.270082 0.962837
vn -0.297542 0.270088 0.915708
vn -0.297522 0.270088 0.915715
vn -0.565934 0.270091 0.778954
vn -0.565952 0.270091 0.778941
vn -0.778970 0.270037 0.565938
vn -0.778959 0.270037 0.565954
vn -0.915719 0.270058 0.297536
vn -0.915718 0.270058 0.297538
vn -0.962826 0.270123 0.000001
vn -0.962826 0.270123 0.000001
vn -0.915719 0.270058 -0.297535
vn -0.915718 0.270058 -0.297538
vn -0.778970 0.270037 -0.565937
vn -0.778959 0.270037 -0.565953
vn -0.565933 0.270091 -0.778955
vn -0.565951 0.270091 -0.778941
vn -0.297542 0.270088 -0.915708
vn -0.297524 0.270088 -0.915714
vn 0.000000 0.270093 -0.962834
vn 0.000000 0.270093 -0.962834
vn 0.297526 0.270107 -0.915708
vn 0.297536 0.270107 -0.915705
vn 0.565935 0.270113 -0.778946
vn 0.565940 0.270113 -0.778942
vn 0.445005 -0.835128 -0.323314
vn 0.523132 -0.835129 -0.169977
vn 0.323316 -0.835127 -0.445006
vn 0.169977 -0.835127 -0.523135
vn 0.000000 -0.835127 -0.550057
vn -0.169977 -0.835127 -0.523136
vn -0.323317 -0.835127 -0.445005
vn -0.445007 -0.835127 -0.323315
vn -0.523135 -0.835127 -0.169980
vn -0.550058 -0.835127 -0.000000
vn -0.523136 -0.835126 0.169980
vn -0.445008 -0.835126 0.323315
vn -0.323317 -0.835127 0.445005
vn -0.169977 -0.835126 0.523137
vn -0.000000 -0.835127 0.550057
vn 0.169977 -0.835128 0.523134
vn 0.323315 -0.835127 0.445005
vn 0.445005 -0.835128 0.323315
vn 0.523134 -0.835128 0.169978
vn 0.550055 -0.835129 -0.000000
vn -0.091257 0.995386 0.029651
vn -0.369122 0.921610 0.119936
vn -0.313994 0.921609 0.228131
vn -0.077628 0.995386 0.056400
vn -0.095952 0.995386 0.000000
vn -0.388118 0.921610 -0.000000
vn -0.228131 0.921609 0.313994
vn -0.056399 0.995386 0.077627
vn -0.119935 0.921610 0.369123
vn -0.029651 0.995386 0.091257
vn 0.000000 0.921610 0.388118
vn 0.000000 0.995386 0.095953
vn 0.119935 0.921610 0.369123
vn 0.029651 0.995386 0.091257
vn 0.228131 0.921609 0.313994
vn 0.056399 0.995386 0.077627
vn 0.313994 0.921610 0.228130
vn 0.077628 0.995386 0.056400
vn 0.369123 0.921609 0.119935
vn 0.091257 0.995386 0.029651
vn 0.388119 0.921610 0.000000
vn 0.095953 0.995386 0.000000
vn 0.369123 0.921609 -0.119935
vn 0.091257 0.995386 -0.029651
vn 0.313994 0.921610 -0.228130
vn 0.077628 0.995386 -0.056400
vn 0.228131 0.921610 -0.313994
vn 0.056400 0.995386 -0.077627
vn 0.119935 0.921610 -0.369123
vn 0.029651 0.995386 -0.091258
vn 0.000000 0.921610 -0.388118
vn 0.000000 0.995386 -0.095954
vn -0.119936 0.921609 -0.369123
vn -0.029651 0.995386 -0.091257
vn -0.228131 0.921609 -0.313994
vn -0.056400 0.995386 -0.077628
vn -0.313994 0.921610 -0.228131
vn -0.077628 0.995386 -0.056401
vn -0.369122 0.921610 -0.119936
vn -0.091257 0.995386 -0.029651
vn 0.000000 1.000000 -0.000000
vn -0.432964 0.901411 -0.000000
vn -0.411773 0.901412 0.133794
vn -0.411772 0.901411 -0.133794
vn -0.350275 0.901411 -0.254490
vn -0.254491 0.901411 -0.350275
vn -0.133793 0.901411 -0.411773
vn 0.000000 0.901411 -0.432964
vn 0.133793 0.901411 -0.411773
vn 0.254490 0.901411 -0.350275
vn 0.350275 0.901411 -0.254490
vn 0.411773 0.901411 -0.133794
vn 0.432965 0.901411 -0.000000
vn 0.411774 0.901411 0.133793
vn 0.350275 0.901412 0.254489
vn 0.254491 0.901411 0.350276
vn 0.133793 0.901411 0.411773
vn 0.000000 0.901412 0.432963
vn -0.133793 0.901411 0.411773
vn -0.254491 0.901411 0.350276
vn -0.350276 0.901411 0.254490
s 1
g pCylinder1
usemtl initialShadingGroup
f 2/2/1 1/1/2 21/21/3
f 3/3/4 2/2/1 21/21/3
f 4/4/5 3/3/4 21/21/3
f 5/5/6 4/4/5 21/21/3
f 6/6/7 5/5/6 21/21/3
f 7/7/8 6/6/7 21/21/3
f 8/8/9 7/7/8 21/21/3
f 9/9/10 8/8/9 21/21/3
f 10/10/11 9/9/10 21/21/3
f 11/11/12 10/10/11 21/21/3
f 12/12/13 11/11/12 21/21/3
f 13/13/14 12/12/13 21/21/3
f 14/14/15 13/13/14 21/21/3
f 15/15/16 14/14/15 21/21/3
f 16/16/17 15/15/16 21/21/3
f 17/17/18 16/16/17 21/21/3
f 18/18/19 17/17/18 21/21/3
f 19/19/20 18/18/19 21/21/3
f 20/20/21 19/19/20 21/21/3
f 1/1/2 20/20/21 21/21/3
s 2
f 23/22/22 24/26/23 61/28/24 62/141/25
f 24/23/23 23/104/22 26/107/26 25/62/27
f 25/62/27 26/107/26 28/109/28 27/60/29
f 27/60/29 28/109/28 30/111/30 29/58/31
f 29/58/31 30/111/30 32/113/32 31/56/33
f 31/56/33 32/113/32 34/115/34 33/54/35
f 33/54/35 34/115/34 36/117/36 35/52/37
f 35/52/37 36/117/36 38/119/38 37/50/39
f 37/50/39 38/119/38 40/121/40 39/48/41
f 39/48/41 40/121/40 42/123/42 41/46/43
f 41/46/43 42/123/42 44/124/44 43/44/45
f 43/44/45 44/124/44 46/125/46 45/42/47
f 45/42/47 46/125/46 48/127/48 47/41/49
f 47/41/49 48/127/48 50/129/50 49/40/51
f 49/40/51 50/129/50 52/131/52 51/38/53
f 51/38/53 52/131/52 54/133/54 53/36/55
f 53/36/55 54/133/54 56/135/56 55/34/57
f 55/34/57 56/135/56 58/137/58 57/32/59
f 57/32/59 58/137/58 60/139/60 59/30/61
f 59/30/61 60/139/60 62/141/25 61/28/24
s 1
f 1/24/2 2/25/1 61/28/62 24/26/63
f 2/25/1 3/27/4 59/30/64 61/28/62
f 3/27/4 4/29/5 57/32/65 59/30/64
f 4/29/5 5/31/6 55/34/66 57/32/65
f 5/31/6 6/33/7 53/36/67 55/34/66
f 6/33/7 7/35/8 51/38/68 53/36/67
f 7/35/8 8/37/9 49/40/69 51/38/68
f 8/37/9 9/39/10 47/41/70 49/40/69
f 9/39/10 10/10/11 45/42/71 47/41/70
f 10/10/11 11/11/12 43/44/72 45/42/71
f 11/11/12 12/43/13 41/46/73 43/44/72
f 12/43/13 13/45/14 39/48/74 41/46/73
f 13/45/14 14/47/15 37/50/75 39/48/74
f 14/47/15 15/49/16 35/52/76 37/50/75
f 15/49/16 16/51/17 33/54/77 35/52/76
f 16/51/17 17/53/18 31/56/78 33/54/77
f 17/53/18 18/55/19 29/58/79 31/56/78
f 18/55/19 19/57/20 27/60/80 29/58/79
f 19/57/20 20/59/21 25/62/81 27/60/80
f 20/59/21 1/61/2 24/23/63 25/62/81
s 3
f 63/102/82 64/63/83 66/65/84 65/83/85
f 64/63/83 63/102/82 101/101/86 102/64/87
f 65/83/85 66/65/84 68/66/88 67/84/89
f 67/84/89 68/66/88 70/67/90 69/85/91
f 69/85/91 70/67/90 72/68/92 71/86/93
f 71/86/93 72/68/92 74/69/94 73/87/95
f 73/87/95 74/69/94 76/70/96 75/88/97
f 75/88/97 76/70/96 78/71/98 77/89/99
f 77/89/99 78/71/98 80/72/100 79/90/101
f 79/90/101 80/72/100 82/73/102 81/91/103
f 81/91/103 82/73/102 84/74/104 83/92/105
f 83/92/105 84/74/104 86/75/106 85/93/107
f 85/93/107 86/75/106 88/76/108 87/94/109
f 87/94/109 88/76/108 90/77/110 89/95/111
f 89/95/111 90/77/110 92/78/112 91/96/113
f 91/96/113 92/78/112 94/79/114 93/97/115
f 93/97/115 94/79/114 96/80/116 95/98/117
f 95/98/117 96/80/116 98/81/118 97/99/119
f 97/99/119 98/81/118 100/82/120 99/100/121
f 99/100/121 100/82/120 102/64/87 101/101/86
f 63/102/82 65/83/85 22/103/122
f 65/83/85 67/84/89 22/103/122
f 67/84/89 69/85/91 22/103/122
f 69/85/91 71/86/93 22/103/122
f 71/86/93 73/87/95 22/103/122
f 73/87/95 75/88/97 22/103/122
f 75/88/97 77/89/99 22/103/122
f 77/89/99 79/90/101 22/103/122
f 79/90/101 81/91/103 22/103/122
f 81/91/103 83/92/105 22/103/122
f 83/92/105 85/93/107 22/103/122
f 85/93/107 87/94/109 22/103/122
f 87/94/109 89/95/111 22/103/122
f 89/95/111 91/96/113 22/103/122
f 91/96/113 93/97/115 22/103/122
f 93/97/115 95/98/117 22/103/122
f 95/98/117 97/99/119 22/103/122
f 97/99/119 99/100/121 22/103/122
f 99/100/121 101/101/86 22/103/122
f 101/101/86 63/102/82 22/103/122
f 26/107/123 23/104/124 64/105/83 102/106/87
f 28/109/125 26/107/123 102/106/87 100/108/120
f 30/111/126 28/109/125 100/108/120 98/110/118
f 32/113/127 30/111/126 98/110/118 96/112/116
f 34/115/128 32/113/127 96/112/116 94/114/114
f 36/117/129 34/115/128 94/114/114 92/116/112
f 38/119/130 36/117/129 92/116/112 90/118/110
f 40/121/131 38/119/130 90/118/110 88/120/108
f 42/123/132 40/121/131 88/120/108 86/122/106
f 44/124/133 42/123/132 86/122/106 84/74/104
f 46/125/134 44/124/133 84/74/104 82/73/102
f 48/127/135 46/125/134 82/73/102 80/126/100
f 50/129/136 48/127/135 80/126/100 78/128/98
f 52/131/137 50/129/136 78/128/98 76/130/96
f 54/133/138 52/131/137 76/130/96 74/132/94
f 56/135/139 54/133/138 74/132/94 72/134/92
f 58/137/140 56/135/139 72/134/92 70/136/90
f 60/139/141 58/137/140 70/136/90 68/138/88
f 62/141/142 60/139/141 68/138/88 66/140/84
f 23/22/124 62/141/142 66/140/84 64/142/83
