# This file uses centimeters as units for non-parametric coordinates.

mtllib cutting_desk_2.mtl
g default
v -27.108081 1.023742 -1.963315
v -27.108081 1.620411 -1.963315
v -27.108081 2.614860 -1.963315
v -27.108081 3.467245 -1.963315
v -27.262043 4.293066 -1.963315
v -27.374022 5.076898 -1.963315
v -27.391537 5.076898 -2.329472
v -27.262043 4.293066 -2.329472
v -27.108081 3.467245 -2.329472
v -27.108081 2.614860 -2.329472
v -27.108081 1.620411 -2.329472
v -27.108081 1.023742 -2.329472
v -28.070093 0.520027 -1.980090
v -28.064282 0.529850 -1.963315
v -27.053890 0.530358 -1.963315
v -27.052089 0.513987 -1.979784
v -28.064282 0.529850 -2.329472
v -28.070131 0.519964 -2.312875
v -27.053890 0.530358 -2.329472
v -27.052089 0.513987 -2.313004
v -28.353609 1.023742 -1.979734
v -28.338124 1.029659 -1.963315
v -26.035461 0.520898 -1.979927
v -26.042108 0.530010 -1.963315
v -25.862554 1.023742 -1.979734
v -25.878381 1.028176 -1.963315
v -28.310065 3.462806 -2.329472
v -28.325927 3.467245 -2.313053
v -28.492002 2.614860 -2.313053
v -28.475582 2.613276 -2.329472
v -25.890228 3.467245 -2.313053
v -25.905636 3.460453 -2.329472
v -25.724160 2.614860 -2.313053
v -25.740581 2.613276 -2.329472
v -26.042108 0.530010 -2.329472
v -26.035478 0.520845 -2.312925
v -28.310065 3.462806 -1.963315
v -28.325927 3.467245 -1.979734
v -28.021466 4.293066 -1.979734
v -28.005765 4.288187 -1.963315
v -25.890228 3.467245 -1.979734
v -25.905636 3.460453 -1.963315
v -26.502624 4.293066 -1.979734
v -26.516512 4.284228 -1.963315
v -26.502624 4.293066 -2.313053
v -26.516512 4.284228 -2.329472
v -28.005765 4.288187 -2.329472
v -28.021466 4.293066 -2.313053
v -27.821723 5.076898 -1.979734
v -27.804925 5.076328 -1.963315
v -26.926325 5.076898 -1.979734
v -26.942881 5.073001 -1.963315
v -26.926325 5.076898 -2.313053
v -26.942881 5.073001 -2.329472
v -27.804925 5.076328 -2.329472
v -27.821723 5.076898 -2.313053
v -27.922586 5.626151 -1.979734
v -27.907501 5.634883 -1.963315
v -26.925712 5.590153 -1.963315
v -26.909434 5.585605 -1.979734
v -26.909434 5.585605 -2.313053
v -26.925712 5.590153 -2.329472
v -27.907501 5.634883 -2.329472
v -27.922586 5.626151 -2.313053
v -28.492002 2.614860 -1.979734
v -28.475582 2.613276 -1.963315
v -28.492002 1.620411 -2.313053
v -28.475582 1.622291 -2.329472
v -25.724160 1.620411 -2.313053
v -25.740581 1.622291 -2.329472
v -25.724160 2.614860 -1.979734
v -25.740581 2.613276 -1.963315
v -28.492002 1.620411 -1.979734
v -28.475582 1.622291 -1.963315
v -28.353609 1.023742 -2.313053
v -28.338124 1.029659 -2.329472
v -25.862554 1.023742 -2.313053
v -25.878381 1.028176 -2.329472
v -25.724160 1.620411 -1.979734
v -25.740581 1.622291 -1.963315
v -27.296962 5.733389 -1.980018
v -27.320272 5.731760 -1.981750
v -27.325784 5.718005 -1.963315
v -27.291104 5.715065 -1.963315
v -27.296962 5.733389 -2.312768
v -27.291104 5.715065 -2.329472
v -27.325784 5.718005 -2.329472
v -27.320127 5.731632 -2.311254
v -28.255629 5.908605 -1.979734
v -28.247816 5.923507 -1.963315
v -27.580110 5.962666 -1.979734
v -27.588192 5.947880 -1.963315
v -28.549776 6.007597 -1.963315
v -28.579472 6.006163 -1.978471
v -28.234624 6.146463 -1.979734
v -28.233890 6.129202 -1.963315
v -27.588192 5.947880 -2.329472
v -27.580110 5.962666 -2.313053
v -28.255629 5.908605 -2.313053
v -28.247816 5.923507 -2.329472
v -28.233890 6.129202 -2.329472
v -28.234624 6.146463 -2.313053
v -28.580835 6.005648 -2.314948
v -28.549776 6.007597 -2.329472
v -27.045908 6.023485 -1.979734
v -27.035733 6.010150 -1.963315
v -27.045908 6.023485 -2.313053
v -27.035733 6.010150 -2.329472
v -26.701509 5.955908 -1.979734
v -26.714164 5.966910 -1.963315
v -26.713884 6.164053 -1.963315
v -26.718075 6.180251 -1.979734
v -26.411606 6.188441 -1.977706
v -26.443002 6.177294 -1.963315
v -26.714164 5.966910 -2.329472
v -26.701509 5.955908 -2.313053
v -26.443002 6.177294 -2.329472
v -26.413245 6.188343 -2.314404
v -26.718075 6.180251 -2.313053
v -26.713884 6.164053 -2.329472
vt 0.739827 0.943328
vt 0.739806 0.946642
vt 0.652235 0.946500
vt 0.652265 0.943172
vt 0.822945 0.943592
vt 0.822068 0.946385
vt 0.509882 0.946113
vt 0.509880 0.942788
vt 0.740156 0.895773
vt 0.652391 0.895410
vt 0.822563 0.895557
vt 0.385495 0.945785
vt 0.385490 0.942462
vt 0.509986 0.895026
vt 0.652373 0.892085
vt 0.740139 0.892458
vt 0.821690 0.892781
vt 0.259493 0.945633
vt 0.259470 0.942309
vt 0.385663 0.894769
vt 0.510000 0.891698
vt 0.143790 0.945881
vt 0.143789 0.942567
vt 0.259532 0.894604
vt 0.385675 0.891446
vt 0.064139 0.946682
vt 0.064257 0.943359
vt 0.143570 0.894778
vt 0.259556 0.891280
vt 0.000000 0.945367
vt 0.000753 0.942086
vt 0.063400 0.894858
vt 0.143564 0.891464
vt 0.002129 0.895772
vt 0.063282 0.891540
vt 0.001406 0.892486
vt 0.793254 0.001181
vt 0.795978 0.000235
vt 0.796149 0.076310
vt 0.792825 0.076325
vt 0.843837 0.000001
vt 0.843908 0.076285
vt 0.796144 0.163930
vt 0.792821 0.163965
vt 0.846557 0.000950
vt 0.847231 0.076294
vt 0.843841 0.164075
vt 0.795809 0.306410
vt 0.792483 0.306412
vt 0.847167 0.164112
vt 0.843650 0.306394
vt 0.795556 0.430406
vt 0.792241 0.430419
vt 0.846977 0.306404
vt 0.843102 0.430850
vt 0.795187 0.577803
vt 0.791864 0.577776
vt 0.846413 0.430865
vt 0.842978 0.577716
vt 0.795483 0.705512
vt 0.792161 0.705594
vt 0.846301 0.577687
vt 0.843419 0.705113
vt 0.795809 0.778225
vt 0.792496 0.778283
vt 0.846740 0.705188
vt 0.843689 0.778017
vt 0.795899 0.838842
vt 0.792578 0.838997
vt 0.847003 0.778069
vt 0.843888 0.838994
vt 0.796725 0.892681
vt 0.794065 0.888287
vt 0.847208 0.839122
vt 0.843943 0.891372
vt 0.846531 0.887240
vt 0.114598 0.999423
vt 0.113774 0.996637
vt 0.259545 0.996675
vt 0.259288 1.000000
vt 0.113777 0.948981
vt 0.259542 0.948967
vt 0.405121 0.996645
vt 0.404178 0.999361
vt 0.114607 0.946212
vt 0.259285 0.945642
vt 0.405106 0.948959
vt 0.404165 0.946248
vt 0.402405 0.820500
vt 0.405826 0.820349
vt 0.403120 0.870668
vt 0.399730 0.870351
vt 0.402160 0.817271
vt 0.405397 0.816947
vt 0.459445 0.869716
vt 0.459030 0.822994
vt 0.402510 0.874056
vt 0.399316 0.873534
vt 0.351237 0.821291
vt 0.351795 0.868180
vt 0.350936 0.817976
vt 0.459282 0.819692
vt 0.459614 0.873019
vt 0.511423 0.822940
vt 0.511205 0.870100
vt 0.351428 0.871491
vt 0.253773 0.867837
vt 0.254485 0.820803
vt 0.254660 0.817520
vt 0.511331 0.819637
vt 0.511133 0.873399
vt 0.554748 0.821588
vt 0.555489 0.871021
vt 0.253970 0.871126
vt 0.200241 0.819533
vt 0.201409 0.869420
vt 0.204592 0.817009
vt 0.550072 0.819152
vt 0.550943 0.873576
vt 0.205820 0.871845
vt 0.412658 0.708680
vt 0.413121 0.712014
vt 0.368242 0.711443
vt 0.364229 0.708849
vt 0.412669 0.660953
vt 0.364075 0.660670
vt 0.413140 0.657620
vt 0.368261 0.658088
vt 0.452162 0.004891
vt 0.596817 0.002509
vt 0.590257 0.073276
vt 0.414171 0.077112
vt 0.741669 0.000000
vt 0.766320 0.070923
vt 0.591707 0.158699
vt 0.395932 0.162291
vt 0.787492 0.155645
vt 0.594124 0.301071
vt 0.398340 0.304167
vt 0.789900 0.297521
vt 0.596195 0.423103
vt 0.424101 0.425389
vt 0.768328 0.419209
vt 0.576159 0.541707
vt 0.469672 0.542816
vt 0.682873 0.538630
vt 0.562032 0.654197
vt 0.500340 0.655163
vt 0.623748 0.652592
vt 0.575454 0.745360
vt 0.570496 0.745865
vt 0.627462 0.726589
vt 0.487012 0.735378
vt 0.612732 0.786986
vt 0.658664 0.780014
vt 0.533487 0.779413
vt 0.438992 0.777526
vt 0.697997 0.809475
vt 0.659183 0.808237
vt 0.441485 0.806941
vt 0.395966 0.790299
vt 0.375744 0.077135
vt 0.199658 0.073287
vt 0.193104 0.002519
vt 0.337759 0.004911
vt 0.393977 0.162315
vt 0.198202 0.158709
vt 0.023596 0.070921
vt 0.048252 0.000000
vt 0.391559 0.304190
vt 0.195776 0.301081
vt 0.002418 0.155642
vt 0.365790 0.425410
vt 0.193696 0.423113
vt 0.000000 0.297517
vt 0.213723 0.541718
vt 0.320211 0.542834
vt 0.021563 0.419207
vt 0.107010 0.538634
vt 0.230350 0.654252
vt 0.289534 0.655179
vt 0.166127 0.652600
vt 0.302857 0.735396
vt 0.219372 0.745877
vt 0.214414 0.745371
vt 0.256379 0.779427
vt 0.350874 0.777547
vt 0.162407 0.726596
vt 0.393899 0.790323
vt 0.348379 0.806962
vt 0.177134 0.786994
vt 0.131201 0.780019
vt 0.130680 0.808242
vt 0.091867 0.809477
vn -0.268009 -0.692210 0.670087
vn -0.270917 -0.690819 0.670353
vn 0.000192 -0.788630 0.614868
vn 0.000144 -0.788565 0.614951
vn -0.692146 -0.264539 0.671530
vn -0.692159 -0.262919 0.672153
vn 0.288721 -0.673940 0.680033
vn 0.285517 -0.675726 0.679614
vn -0.267028 -0.689770 -0.672988
vn -0.270108 -0.688294 -0.673270
vn -0.691148 -0.262090 -0.673515
vn -0.691120 -0.263782 -0.672884
vn 0.000168 -0.786790 -0.617221
vn 0.000216 -0.786868 -0.617122
vn 0.285136 -0.674641 -0.680851
vn 0.288267 -0.672897 -0.681257
vn -0.702239 -0.061221 0.709304
vn -0.702281 -0.060812 0.709298
vn 0.716776 -0.200345 0.667902
vn 0.717146 -0.200904 0.667338
vn 0.702284 -0.060859 0.709291
vn 0.702243 -0.061269 0.709297
vn -0.679644 0.190965 -0.708249
vn -0.679835 0.190284 -0.708249
vn -0.674271 0.211409 -0.707577
vn -0.674419 0.210933 -0.707577
vn -0.702605 0.063338 -0.708756
vn -0.702634 0.063027 -0.708755
vn -0.702236 -0.061221 -0.709307
vn -0.702277 -0.060812 -0.709302
vn 0.633880 0.292727 -0.715896
vn 0.632809 0.295097 -0.715870
vn 0.594160 0.381680 -0.708021
vn 0.593588 0.382573 -0.708019
vn 0.702615 0.062977 -0.708777
vn 0.702586 0.063288 -0.708779
vn 0.702280 -0.060859 -0.709295
vn 0.702239 -0.061269 -0.709300
vn 0.716863 -0.200772 -0.667681
vn 0.716489 -0.200201 -0.668254
vn -0.679648 0.190966 0.708245
vn -0.679839 0.190285 0.708245
vn -0.702638 0.063028 0.708751
vn -0.702609 0.063339 0.708751
vn -0.674423 0.210934 0.707574
vn -0.674274 0.211411 0.707573
vn -0.697208 0.051173 0.715040
vn -0.697195 0.051404 0.715036
vn 0.633884 0.292729 0.715892
vn 0.632813 0.295099 0.715867
vn 0.702591 0.063288 0.708774
vn 0.702620 0.062977 0.708773
vn 0.593591 0.382575 0.708016
vn 0.594163 0.381682 0.708018
vn 0.663301 0.209167 0.718527
vn 0.663750 0.207522 0.718589
vn 0.663747 0.207520 -0.718593
vn 0.663298 0.209166 -0.718530
vn -0.697192 0.051403 -0.715040
vn -0.697204 0.051173 -0.715044
vn -0.609123 -0.315627 0.727564
vn -0.607060 -0.319367 0.727656
vn 0.674913 -0.173633 0.717178
vn 0.675419 -0.171747 0.717156
vn 0.675415 -0.171746 -0.717160
vn 0.674909 -0.173632 -0.717181
vn -0.607056 -0.319365 -0.727660
vn -0.609119 -0.315625 -0.727567
vn -0.366779 -0.625821 0.688347
vn -0.365849 -0.626630 0.688105
vn 0.557630 -0.454547 0.694576
vn 0.558245 -0.453524 0.694750
vn 0.563855 -0.458878 -0.686657
vn 0.563025 -0.460459 -0.686280
vn -0.363426 -0.620074 -0.695291
vn -0.363917 -0.619688 -0.695378
vn -0.537168 0.464532 0.704031
vn -0.537168 0.464532 0.704031
vn -0.428864 0.554639 0.713057
vn -0.431498 0.552656 0.713008
vn -0.072657 0.997357 -0.000210
vn -0.072657 0.997357 -0.000210
vn -0.072657 0.997357 -0.000210
vn -0.072657 0.997357 -0.000210
vn 0.500205 0.564055 0.656991
vn 0.500205 0.564055 0.656991
vn 0.303010 0.648264 0.698525
vn 0.298537 0.649760 0.699062
vn -0.537167 0.464531 -0.704033
vn -0.537167 0.464531 -0.704033
vn -0.431497 0.552653 -0.713011
vn -0.428863 0.554637 -0.713060
vn 0.498695 0.562643 -0.659345
vn 0.498695 0.562643 -0.659346
vn 0.297762 0.649296 -0.699823
vn 0.302008 0.647850 -0.699344
vn -0.213692 -0.740632 0.637024
vn -0.213692 -0.740632 0.637024
vn 0.043460 0.710822 0.702028
vn 0.041926 0.711049 0.701892
vn -0.283888 0.719251 0.634102
vn -0.283888 0.719251 0.634102
vn 0.043800 0.708725 -0.704124
vn 0.046106 0.708411 -0.704292
vn -0.207599 -0.725667 -0.655980
vn -0.207599 -0.725667 -0.655980
vn -0.280975 0.713548 -0.641796
vn -0.280975 0.713548 -0.641796
vn -0.193369 0.696863 0.690645
vn -0.196912 0.695189 0.691331
vn -0.195534 0.698896 -0.687976
vn -0.192629 0.700339 -0.687327
vn 0.463826 -0.590575 0.660368
vn 0.463826 -0.590575 0.660368
vn -0.030517 0.760779 0.648294
vn -0.030517 0.760779 0.648294
vn 0.475881 -0.603147 -0.640118
vn 0.475881 -0.603147 -0.640118
vn -0.029951 0.767742 -0.640059
vn -0.029951 0.767742 -0.640059
vn 0.000000 0.000000 1.000000
vn 0.000000 0.000000 1.000000
vn 0.000000 0.000000 1.000000
vn 0.000000 0.000000 1.000000
vn -0.376804 0.926293 0.000056
vn -0.376804 0.926293 0.000056
vn -0.376804 0.926293 0.000056
vn -0.376804 0.926293 0.000056
vn 0.000000 0.000000 -1.000000
vn 0.000000 0.000000 -1.000000
vn -0.000000 0.000000 -1.000000
vn 0.000000 0.000000 -1.000000
vn -0.005902 -0.999983 0.000096
vn 0.000432 -1.000000 0.000088
vn 0.000434 -1.000000 0.000088
vn -0.005902 -0.999983 0.000096
vn 0.945656 -0.325170 0.000002
vn 0.945655 -0.325170 0.000002
vn 0.962190 -0.272378 0.000001
vn 0.962195 -0.272363 0.000001
vn -0.871473 -0.490444 0.000096
vn -0.871473 -0.490444 0.000096
vn -0.933824 -0.357734 0.000047
vn -0.933786 -0.357832 0.000047
vn 0.000000 0.000000 1.000000
vn -0.000000 0.000000 1.000000
vn -0.000000 0.000000 1.000000
vn 0.000000 0.000000 1.000000
vn 0.907154 0.420799 0.000000
vn 0.907154 0.420799 0.000000
vn 0.840865 0.541245 0.000000
vn 0.840865 0.541245 0.000000
vn 0.000000 -0.000000 -1.000000
vn -0.000000 0.000000 -1.000000
vn -0.000000 0.000000 -1.000000
vn -0.000000 -0.000000 -1.000000
vn -0.962869 0.269970 0.000000
vn -0.962869 0.269970 0.000000
vn -0.954279 0.298916 0.000000
vn -0.954279 0.298916 0.000000
vn -0.000000 0.000000 1.000000
vn 0.000000 0.000000 1.000000
vn 0.879703 0.475524 0.000000
vn 0.879703 0.475524 0.000000
vn -0.000000 -0.000000 -1.000000
vn -0.000000 -0.000000 -1.000000
vn -0.997261 0.073970 0.000000
vn -0.997261 0.073970 0.000000
vn -0.000000 0.000000 1.000000
vn 0.000000 0.000000 1.000000
vn 0.999449 -0.033185 0.000000
vn 0.999449 -0.033185 0.000000
vn 0.968815 -0.247784 0.000000
vn 0.968815 -0.247784 0.000000
vn -0.983554 -0.180617 0.000000
vn -0.983554 -0.180617 0.000000
vn -0.995981 0.089563 0.000000
vn -0.995981 0.089563 0.000000
vn 0.000000 0.000000 -1.000000
vn 0.000000 0.000000 -1.000000
vn 0.995982 0.089559 0.000000
vn 0.995982 0.089559 0.000000
vn 0.000000 0.000000 1.000000
vn -0.000000 0.000000 1.000000
vn -0.996239 -0.086652 0.000000
vn -0.996239 -0.086652 0.000000
vn 0.000000 0.000000 -1.000000
vn 0.000000 0.000000 -1.000000
vn 0.996239 -0.086652 0.000000
vn 0.996239 -0.086652 0.000000
vn 0.000000 0.000000 1.000000
vn 0.000000 0.000000 1.000000
vn 0.000000 0.000000 1.000000
vn 0.000000 0.000000 1.000000
vn 0.000000 0.000000 1.000000
vn -0.000000 0.000000 1.000000
vn -0.000000 0.000000 1.000000
vn -0.000000 0.000000 1.000000
vn -0.000000 0.000000 1.000000
vn -0.249459 0.968385 -0.000038
vn -0.248514 0.968628 -0.000039
vn -0.026625 0.999646 -0.000081
vn -0.026625 0.999646 -0.000081
vn 0.000000 -0.000000 -1.000000
vn 0.000000 -0.000000 -1.000000
vn -0.000000 0.000000 -1.000000
vn 0.000000 0.000000 -1.000000
vn 0.000000 0.000000 -1.000000
vn 0.000000 0.000000 -1.000000
vn -0.000000 0.000000 -1.000000
vn 0.006772 -0.999977 0.000079
vn 0.006772 -0.999977 0.000079
vn 0.000000 0.000000 1.000000
vn 0.000000 0.000000 1.000000
vn 0.000000 0.000000 1.000000
vn -0.000000 0.000000 -1.000000
vn -0.000000 0.000000 -1.000000
vn -0.000000 0.000000 -1.000000
vn -0.000000 0.000000 -1.000000
vn -0.646806 -0.762654 0.000000
vn -0.646806 -0.762654 0.000000
vn -0.498241 -0.867038 0.000596
vn -0.497533 -0.867445 0.000599
vn 0.000000 0.000000 1.000000
vn -0.000000 0.000000 1.000000
vn 0.000000 0.000000 1.000000
vn 0.770238 -0.637756 -0.000682
vn 0.769745 -0.638351 -0.000684
vn 0.000000 0.000000 -1.000000
vn 0.000000 0.000000 -1.000000
vn -0.000000 0.000000 -1.000000
vn -0.000000 0.000000 -1.000000
vn -0.287196 -0.957871 0.001320
vn -0.287196 -0.957871 0.001320
vn 0.000000 0.000000 -1.000000
vn 0.000000 0.000000 -1.000000
vn 0.410048 0.912064 0.000000
vn 0.410319 0.911942 0.000000
vn 0.270357 0.962760 0.000000
vn 0.270357 0.962760 0.000000
vn 0.000000 0.000000 1.000000
vn 0.000000 0.000000 1.000000
vn -0.610699 0.791863 0.000000
vn -0.610699 0.791863 0.000000
vn -0.000000 0.000000 -1.000000
vn -0.000000 0.000000 -1.000000
vn 0.626694 -0.779264 -0.001419
vn 0.626694 -0.779264 -0.001419
vn 0.000000 0.000000 1.000000
vn 0.000000 0.000000 1.000000
vn -0.756157 0.654391 0.000000
vn -0.756157 0.654391 0.000000
vn 0.664266 0.747496 0.000000
vn 0.664266 0.747496 0.000000
vn -0.003427 0.738489 0.674257
vn -0.003427 0.738489 0.674257
vn -0.003427 0.738489 0.674257
vn -0.003427 0.738489 0.674257
vn -0.002588 0.737769 -0.675048
vn -0.002588 0.737769 -0.675048
vn -0.002588 0.737769 -0.675048
vn -0.002588 0.737769 -0.675048
vn 0.000000 0.000000 -1.000000
vn -0.000001 0.000000 -1.000000
vn -0.000001 0.000000 -1.000000
vn -0.000001 0.000000 -1.000000
vn -0.000001 0.000000 -1.000000
vn 0.000001 0.000001 -1.000000
vn 0.000001 0.000001 -1.000000
vn 0.000001 0.000001 -1.000000
vn 0.000001 0.000001 -1.000000
s 1
g pCube1
usemtl initialShadingGroup
f 14/77/1 13/78/2 16/79/3 15/80/4
f 13/5/2 14/6/1 22/2/5 21/1/6
f 15/80/4 16/79/3 23/83/7 24/84/8
s 2
f 17/17/9 18/11/10 75/9/11 76/16/12
f 18/81/10 17/85/9 19/86/13 20/82/14
f 20/82/14 19/86/13 35/88/15 36/87/16
s 1
f 21/1/6 22/2/5 74/3/17 73/4/18
f 24/37/8 23/38/7 25/39/19 26/40/20
f 26/40/20 25/39/19 79/43/21 80/44/22
s 2
f 27/25/23 28/20/24 48/24/25 47/29/26
f 28/20/24 27/25/23 30/21/27 29/14/28
f 29/14/28 30/21/27 68/15/29 67/10/30
f 31/55/31 32/58/32 46/62/33 45/59/34
f 32/58/32 31/55/31 33/51/35 34/54/36
f 34/54/36 33/51/35 69/47/37 70/50/38
f 36/41/16 35/45/15 78/46/39 77/42/40
s 1
f 37/12/41 38/13/42 65/8/43 66/7/44
f 38/13/42 37/12/41 40/18/45 39/19/46
f 39/19/46 40/18/45 50/22/47 49/23/48
f 41/52/49 42/53/50 72/49/51 71/48/52
f 42/53/50 41/52/49 43/56/53 44/57/54
f 44/57/54 43/56/53 51/60/55 52/61/56
s 2
f 45/59/34 46/62/33 54/66/57 53/63/58
f 47/29/26 48/24/25 56/28/59 55/33/60
s 1
f 49/23/48 50/22/47 58/26/61 57/27/62
f 52/61/56 51/60/55 60/64/63 59/65/64
s 2
f 53/63/58 54/66/57 62/70/65 61/67/66
f 55/33/60 56/28/59 64/32/67 63/35/68
s 1
f 57/27/62 58/26/61 90/30/69 89/31/70
f 59/65/64 60/64/63 109/68/71 110/69/72
s 2
f 61/67/66 62/70/65 115/74/73 116/71/74
f 63/35/68 64/32/67 99/34/75 100/36/76
s 1
f 66/7/44 65/8/43 73/4/18 74/3/17
s 2
f 67/10/30 68/15/29 76/16/12 75/9/11
f 70/50/38 69/47/37 77/42/40 78/46/39
s 1
f 71/48/52 72/49/51 80/44/22 79/43/21
s 7
f 81/90/77 84/94/78 106/102/79 105/96/80
s off
f 82/89/81 81/90/82 85/91/83 88/92/84
s 8
f 83/93/85 82/89/86 91/99/87 92/101/88
s 9
f 86/97/89 85/91/90 107/95/91 108/103/92
s 10
f 88/92/93 87/98/94 97/106/95 98/100/96
s 1
f 89/121/70 90/122/69 93/123/97 94/124/98
s 8
f 92/101/88 91/99/87 95/108/99 96/109/100
f 94/115/101 93/117/102 96/109/100 95/108/99
s 10
f 98/100/96 97/106/95 101/114/103 102/107/104
s 2
f 100/127/76 99/125/75 103/126/105 104/128/106
s 10
f 102/107/104 101/114/103 104/120/107 103/116/108
s 7
f 105/96/80 106/102/79 111/110/109 112/104/110
s 9
f 108/103/92 107/95/91 119/105/111 120/111/112
s 1
f 110/69/72 109/68/71 113/72/113 114/73/114
s 7
f 112/104/110 111/110/109 114/118/115 113/112/116
s 2
f 116/71/74 115/74/73 117/76/117 118/75/118
s 9
f 118/113/119 117/119/120 120/111/112 119/105/111
s 11
f 14/129/121 15/130/122 1/131/123 22/132/124
s off
f 94/115/125 95/108/126 102/107/127 103/116/128
s 12
f 76/162/129 12/163/130 19/164/131 17/165/132
s 13
f 18/81/133 20/82/134 16/79/135 13/78/136
s 14
f 23/38/137 36/41/138 77/42/139 25/39/140
s 15
f 18/11/141 13/5/142 21/1/143 75/9/144
s 11
f 37/142/145 4/141/146 5/144/147 40/145/148
s 14
f 41/52/149 31/55/150 45/59/151 43/56/152
s 12
f 8/176/153 9/174/154 27/173/155 47/177/156
s 15
f 28/20/157 38/13/158 39/19/159 48/24/160
s 11
f 40/145/148 5/144/147 6/147/161 50/148/162
s 14
f 43/56/152 45/59/151 53/63/163 51/60/164
s 12
f 7/180/165 8/176/153 47/177/156 55/181/166
s 15
f 48/24/160 39/19/159 49/23/167 56/28/168
s 11
f 50/148/162 6/147/161 84/150/169 83/151/170
s 20
f 51/60/171 53/63/172 61/67/173 60/64/174
s 15
f 56/28/168 49/23/167 57/27/175 64/32/176
f 29/14/177 65/8/178 38/13/158 28/20/157
s 12
f 27/173/155 9/174/154 10/171/179 30/170/180
s 14
f 71/48/181 33/51/182 31/55/150 41/52/149
s 11
f 66/139/183 3/138/184 4/141/146 37/142/145
s 15
f 67/10/185 73/4/186 65/8/178 29/14/177
s 12
f 30/170/180 10/171/179 11/167/187 68/166/188
s 14
f 79/43/189 69/47/190 33/51/182 71/48/181
s 11
f 74/136/191 2/135/192 3/138/184 66/139/183
s 15
f 75/9/144 21/1/143 73/4/186 67/10/185
s 12
f 68/166/188 11/167/187 12/163/130 76/162/129
s 14
f 25/39/140 77/42/139 69/47/190 79/43/189
s 11
f 22/132/124 1/131/123 2/135/192 74/136/191
f 1/131/123 15/130/122 24/133/193 26/134/194
f 2/135/192 1/131/123 26/134/194 80/137/195
f 3/138/184 2/135/192 80/137/195 72/140/196
f 4/141/146 3/138/184 72/140/196 42/143/197
f 5/144/147 4/141/146 42/143/197 44/146/198
f 6/147/161 5/144/147 44/146/198 52/149/199
s 21
f 119/105/200 112/104/201 113/112/202 118/113/203
s 12
f 46/179/204 8/176/153 7/180/165 54/182/205
f 32/178/206 9/174/154 8/176/153 46/179/204
f 10/171/179 9/174/154 32/178/206 34/175/207
f 11/167/187 10/171/179 34/175/207 70/172/208
f 12/163/130 11/167/187 70/172/208 78/168/209
f 19/164/131 12/163/130 78/168/209 35/169/210
s 13
f 16/79/135 20/82/134 36/87/211 23/83/212
s 11
f 58/153/213 83/151/170 92/156/214 90/157/215
s 22
f 97/186/216 87/184/217 63/183/218 100/187/219
s 23
f 64/32/220 57/27/221 89/31/222 99/34/223
s 11
f 106/154/224 84/150/169 59/152/225 110/155/226
s 20
f 60/64/174 61/67/173 116/71/227 109/68/228
s 24
f 62/188/229 86/185/230 108/191/231 115/192/232
s 23
f 99/125/223 89/121/222 94/124/233 103/126/234
s 22
f 97/186/216 100/187/219 104/189/235 101/190/236
s 25
f 91/99/237 98/100/238 102/107/239 95/108/240
s 11
f 90/157/215 92/156/214 96/160/241 93/161/242
s 21
f 107/95/243 105/96/244 112/104/201 119/105/200
s 24
f 115/192/232 108/191/231 120/193/245 117/194/246
s 20
f 109/68/228 116/71/227 118/75/247 113/72/248
s 11
f 106/154/224 110/155/226 114/158/249 111/159/250
f 84/150/169 6/147/161 52/149/199 59/152/225
s 21
f 107/95/243 85/91/251 81/90/252 105/96/244
s 25
f 91/99/237 82/89/253 88/92/254 98/100/238
s off
f 81/90/255 82/89/256 83/93/257 84/94/258
f 85/91/259 86/97/260 87/98/261 88/92/262
s 24
f 54/182/263 86/185/230 62/188/229
s 11
f 50/148/162 83/151/170 58/153/213
s off
f 63/183/264 87/184/265 7/180/266 55/181/267
f 86/185/268 54/182/269 7/180/270 87/184/271
